<?xml version="1.0" encoding="UTF-8"?>
<svg width="17px" height="13px" viewBox="0 0 17 13" version="1.1" xmlns="http://www.w3.org/2000/svg" xmlns:xlink="http://www.w3.org/1999/xlink">
    <!-- Generator: Sketch 56.3 (81716) - https://sketch.com -->
    <title>Combined Shape</title>
    <desc>Created with Sketch.</desc>
    <g id="::-Media-Player" stroke="none" stroke-width="1" fill="none" fill-rule="evenodd">
        <g id="Media-Player-/-Full-Screen-Player" transform="translate(-145.000000, -732.000000)" fill="#717C93">
            <g id="Group-5" transform="translate(145.000000, 725.000000)">
                <g id="Group-3" transform="translate(0.000000, 7.000000)">
                    <path d="M0.342105263,0 L1.71052632,0 C1.89946584,-2.02519631e-16 2.05263158,0.153165743 2.05263158,0.342105263 L2.05263158,1.71052632 C2.05263158,1.89946584 1.89946584,2.05263158 1.71052632,2.05263158 L0.342105263,2.05263158 C0.153165743,2.05263158 1.3416072e-16,1.89946584 0,1.71052632 L0,0.342105263 C-2.31384178e-17,0.153165743 0.153165743,1.45729929e-16 0.342105263,0 Z M0.342105263,5.47368421 L1.71052632,5.47368421 C1.89946584,5.47368421 2.05263158,5.62684995 2.05263158,5.81578947 L2.05263158,7.18421053 C2.05263158,7.37315005 1.89946584,7.52631579 1.71052632,7.52631579 L0.342105263,7.52631579 C0.153165743,7.52631579 1.3416072e-16,7.37315005 0,7.18421053 L0,5.81578947 C-2.31384178e-17,5.62684995 0.153165743,5.47368421 0.342105263,5.47368421 Z M0.342105263,10.9473684 L1.71052632,10.9473684 C1.89946584,10.9473684 2.05263158,11.1005342 2.05263158,11.2894737 L2.05263158,12.6578947 C2.05263158,12.8468343 1.89946584,13 1.71052632,13 L0.342105263,13 C0.153165743,13 1.3416072e-16,12.8468343 0,12.6578947 L0,11.2894737 C-2.31384178e-17,11.1005342 0.153165743,10.9473684 0.342105263,10.9473684 Z M3.76315789,0 L16.0789474,0 C16.2678869,-3.47076267e-17 16.4210526,0.153165743 16.4210526,0.342105263 L16.4210526,1.71052632 C16.4210526,1.89946584 16.2678869,2.05263158 16.0789474,2.05263158 L3.76315789,2.05263158 C3.57421838,2.05263158 3.42105263,1.89946584 3.42105263,1.71052632 L3.42105263,0.342105263 C3.42105263,0.153165743 3.57421838,9.02187779e-17 3.76315789,0 Z M3.76315789,5.47368421 L16.0789474,5.47368421 C16.2678869,5.47368421 16.4210526,5.62684995 16.4210526,5.81578947 L16.4210526,7.18421053 C16.4210526,7.37315005 16.2678869,7.52631579 16.0789474,7.52631579 L3.76315789,7.52631579 C3.57421838,7.52631579 3.42105263,7.37315005 3.42105263,7.18421053 L3.42105263,5.81578947 C3.42105263,5.62684995 3.57421838,5.47368421 3.76315789,5.47368421 Z M3.76315789,10.9473684 L16.0789474,10.9473684 C16.2678869,10.9473684 16.4210526,11.1005342 16.4210526,11.2894737 L16.4210526,12.6578947 C16.4210526,12.8468343 16.2678869,13 16.0789474,13 L3.76315789,13 C3.57421838,13 3.42105263,12.8468343 3.42105263,12.6578947 L3.42105263,11.2894737 C3.42105263,11.1005342 3.57421838,10.9473684 3.76315789,10.9473684 Z" id="Combined-Shape"></path>
                </g>
            </g>
        </g>
    </g>
</svg>