<?xml version="1.0" encoding="UTF-8"?>
<svg width="24px" height="22px" viewBox="0 0 24 22" version="1.1" xmlns="http://www.w3.org/2000/svg" xmlns:xlink="http://www.w3.org/1999/xlink">
    <!-- Generator: Sketch 56.3 (81716) - https://sketch.com -->
    <title>Combined Shape</title>
    <desc>Created with Sketch.</desc>
    <g id="::-Media-Player" stroke="none" stroke-width="1" fill="none" fill-rule="evenodd">
        <g id="Media-Player-/-Full-Screen-Player" transform="translate(-93.000000, -652.000000)" fill="#FFFFFF">
            <g id="Group-4" transform="translate(93.000000, 635.000000)">
                <g id="Group">
                    <path d="M21.2843021,17.2930636 C22.4404903,16.530174 24,17.3456766 24,18.7136166 L24,36.2863834 C24,37.6543234 22.4404903,38.469826 21.2843021,37.7069364 L7.78647687,28.920553 C6.73784104,28.236583 6.73784104,26.763417 7.78647687,26.079447 L21.2843021,17.2930636 Z M2.54575394,17.0043948 C2.79447702,17.0043948 3.01393857,17.3732781 2.9993078,17.8475567 L2.9993078,37.161233 C2.9993078,37.6091627 2.79447702,38.0043948 2.53112317,38.0043948 L0.468184632,38.0043948 C0.219461546,38.0043948 0,37.6355115 0,37.161233 L0,17.8475567 C0,17.3996269 0.204830777,17.0043948 0.468184632,17.0043948 L2.54575394,17.0043948 Z" id="Combined-Shape"></path>
                </g>
            </g>
        </g>
    </g>
</svg>