<?xml version="1.0" encoding="UTF-8"?>
<svg width="55px" height="55px" viewBox="0 0 55 55" version="1.1" xmlns="http://www.w3.org/2000/svg" xmlns:xlink="http://www.w3.org/1999/xlink">
    <!-- Generator: Sketch 56.3 (81716) - https://sketch.com -->
    <title>Atoms / Icons / Pause</title>
    <desc>Created with Sketch.</desc>
    <g id="Atoms-/-Icons-/-Pause" stroke="none" stroke-width="1" fill="none" fill-rule="evenodd">
        <path d="M27.5,0 C12.3315789,0 0,12.3315789 0,27.5 C0,42.6684211 12.3315789,55 27.5,55 C42.6684211,55 55,42.6684211 55,27.5 C55,12.3315789 42.6684211,0 27.5,0 Z M27.5,52.4615385 C13.7431421,52.4615385 2.53846154,41.2568579 2.53846154,27.5 C2.53846154,13.7431421 13.7431421,2.53846154 27.5,2.53846154 C41.2568579,2.53846154 52.4615385,13.7431421 52.4615385,27.5 C52.4615385,41.2568579 41.2568579,52.4615385 27.5,52.4615385 Z" id="Shape" fill="#FFFFFF" fill-rule="nonzero"></path>
        <g id="Group" transform="translate(22.000000, 19.000000)" fill="#FFFFFF" fill-rule="nonzero">
            <path d="M3.39433858,0 L0.624246176,0 C0.273107702,0 0,0.338770389 0,0.722710163 L0,17.2772898 C0,17.6838143 0.292615395,18 0.624246176,18 L3.37483089,18 C3.72596936,18 3.99907707,17.6612296 3.99907707,17.2772898 L3.99907707,0.722710163 C4.01858476,0.316185696 3.72596936,0 3.39433858,0 Z" id="Path"></path>
            <path d="M10.3943386,0 L7.62424618,0 C7.2731077,0 7,0.338770389 7,0.722710163 L7,17.2772898 C7,17.6838143 7.2926154,18 7.62424618,18 L10.3748309,18 C10.7259694,18 10.9990771,17.6612296 10.9990771,17.2772898 L10.9990771,0.722710163 C11.0185848,0.316185696 10.7259694,0 10.3943386,0 Z" id="Path-Copy"></path>
        </g>
    </g>
</svg>