<?xml version="1.0" encoding="UTF-8"?>
<svg width="20px" height="16px" viewBox="0 0 20 16" version="1.1" xmlns="http://www.w3.org/2000/svg" xmlns:xlink="http://www.w3.org/1999/xlink">
    <!-- Generator: Sketch 56.3 (81716) - https://sketch.com -->
    <title>Combined Shape</title>
    <desc>Created with Sketch.</desc>
    <g id="::-Media-Player" stroke="none" stroke-width="1" fill="none" fill-rule="evenodd">
        <g id="Media-Player-/-Playlist-Expanded" transform="translate(-325.000000, -170.000000)" fill="#717C93">
            <g id="::-Tracklist" transform="translate(0.000000, 88.000000)">
                <path d="M339.658254,86.5404759 C340.688749,87.363801 341.340694,88.5987886 341.340694,89.9984412 C341.340694,91.3980939 340.667718,92.6742478 339.616193,93.4769897 C339.216614,93.7857366 338.585699,93.7034041 338.249211,93.3123247 L338.165089,93.2299922 C337.849632,92.8594959 337.912723,92.2831684 338.312303,91.9950046 C338.943218,91.5421758 339.342797,90.8217663 339.342797,89.9984412 C339.342797,89.2368655 338.985279,88.5370392 338.417455,88.0842104 C337.975815,87.7342973 337.891693,87.1168034 338.249211,86.6845578 C338.60673,86.2523121 339.237645,86.2111459 339.658254,86.5404759 Z M341.950578,83.7823368 C343.801262,85.2437389 344.97897,87.4872997 345,90.0190244 C345,92.5301659 343.801262,94.7737268 341.950578,96.2351288 C341.529968,96.5644588 340.899054,96.4821263 340.562566,96.0704638 C340.226078,95.6588012 340.268139,95.0413074 340.688749,94.7119774 C342.076761,93.6004885 342.981073,91.8920889 342.981073,89.9984412 C342.981073,88.1047935 342.076761,86.4169771 340.688749,85.2849051 C340.268139,84.9555751 340.226078,84.3380813 340.562566,83.9264187 C340.920084,83.5353393 341.529968,83.4530068 341.950578,83.7823368 Z M333.790747,82.2797686 C334.695058,81.6005254 335.998948,82.2386023 335.998948,83.329508 L335.998948,96.6467913 C335.998948,97.7788633 334.716088,98.3963571 333.811777,97.7171139 L328.680336,93.8680692 L326.177708,93.8680692 C325.525762,93.8680692 325,93.353491 325,92.715414 L325,87.2814685 C325,86.6433915 325.525762,86.1288133 326.177708,86.1288133 L328.680336,86.1288133 L333.790747,82.2797686 Z" id="Combined-Shape"></path>
            </g>
        </g>
    </g>
</svg>