<?xml version="1.0" encoding="UTF-8"?>
<svg width="115px" height="118px" viewBox="0 0 115 118" version="1.1" xmlns="http://www.w3.org/2000/svg" xmlns:xlink="http://www.w3.org/1999/xlink">
    <!-- Generator: Sketch 56.2 (81672) - https://sketch.com -->
    <title>:: Orpheus Logo</title>
    <desc>Created with Sketch.</desc>
    <defs>
        <linearGradient x1="2.51005458%" y1="0%" x2="97.4899454%" y2="100%" id="linearGradient-1">
            <stop stop-color="#5DE7FF" offset="0%"></stop>
            <stop stop-color="#4767B0" offset="100%"></stop>
        </linearGradient>
    </defs>
    <g id="::-Authentication" stroke="none" stroke-width="1" fill="none" fill-rule="evenodd">
        <g id="Email-Verification" transform="translate(-130.000000, -114.000000)" fill="url(#linearGradient-1)">
            <g id="::-Orpheus-Logo" transform="translate(130.000000, 114.000000)">
                <g id="Atoms-/-Icons-/-Email-Verification">
                    <path d="M37.65,37.7149769 C37.65,36.0053766 39.0491102,34.6194717 40.775,34.6194717 L74.225,34.6194717 C75.9508898,34.6194717 77.35,36.0053766 77.35,37.7149769 C77.35,39.4245772 75.9508898,40.8104821 74.225,40.8104821 L40.775,40.8104821 C39.0491102,40.8104821 37.65,39.4245772 37.65,37.7149769 Z M40.775,53.2667951 L74.225,53.2667951 C75.9508898,53.2667951 77.35,51.8808902 77.35,50.1712899 C77.35,48.4616896 75.9508898,47.0757847 74.225,47.0757847 L40.775,47.0757847 C39.0491102,47.0757847 37.65,48.4616896 37.65,50.1712899 C37.65,51.8808902 39.0491102,53.2667951 40.775,53.2667951 L40.775,53.2667951 Z M66.7875,62.6399849 C66.7875,60.9303845 65.3883898,59.5444796 63.6625,59.5444796 L40.775,59.5444796 C39.0491102,59.5444796 37.65,60.9303845 37.65,62.6399849 C37.65,64.3495852 39.0491102,65.7354901 40.775,65.7354901 L63.675,65.7354901 C65.4008898,65.7354901 66.8,64.3495852 66.8,62.6399849 L66.7875,62.6399849 Z M55.475,0.729880688 L42.975,11.2298344 C41.6564202,12.3342362 41.4913252,14.2883621 42.60625,15.5944967 C43.7211748,16.9006313 45.6939202,17.0641681 47.0125,15.9597663 L57.5,7.16853152 L68.025,15.9721483 C68.8779716,16.6865711 70.0509214,16.8959649 71.1020107,16.5214533 C72.1530999,16.1469416 72.9226431,15.2454216 73.1207607,14.1564872 C73.3188783,13.0675529 72.9154716,11.9566391 72.0625,11.2422164 L59.5625,0.742262708 C58.3878696,-0.252096322 56.6559499,-0.246833827 55.4875,0.754644729 L55.475,0.729880688 Z M113.8875,46.2338073 C114.591995,46.8212542 115,47.6865883 115,48.5987732 L115,107.079058 C114.993111,113.107699 110.061084,117.993176 103.975,118 L11.025,118 C4.93891627,117.993176 0.00688861298,113.107699 0,107.079058 L0,48.5987732 C0,47.6865883 0.408005263,46.8212542 1.1125,46.2338073 L12.8875,36.4520108 C14.2060798,35.347609 16.1788251,35.5111458 17.2937499,36.8172805 C18.4086748,38.1234151 18.2435798,40.0775409 16.925,41.1819428 L8.175,48.462571 L21.7,57.9348169 L21.7,28.2179669 C21.7,23.8345517 25.2873184,20.2810916 29.7125,20.2810916 L85.325,20.2810916 C89.7501816,20.2810916 93.3375,23.8345517 93.3375,28.2179669 L93.3375,57.9348169 L106.875,48.450189 L98.2,41.1943248 C96.8814202,40.089923 96.7163252,38.1357971 97.83125,36.8296624 C98.9461748,35.5235278 100.91892,35.359991 102.2375,36.4643928 L113.8875,46.2338073 Z M27.9125,62.3304343 L57.5,83.0579372 L87.0875,62.3304343 L87.0875,28.267495 C87.0875,27.3032804 86.2984019,26.5216301 85.325,26.5216301 L29.675,26.5216301 C28.7015981,26.5216301 27.9125,27.3032804 27.9125,28.267495 L27.9125,62.3304343 Z M108.75,54.7278735 L73.4375,79.4919152 L98.75,98.6345194 C100.130712,99.6602796 100.410534,101.600546 99.3749999,102.968227 C98.339466,104.335907 96.3807119,104.613088 95,103.587328 L68.0875,83.2189035 L59.3375,89.4099139 C58.2553146,90.1691928 56.8071854,90.1691928 55.725,89.4099139 L46.975,83.2189035 L20.075,103.587328 C18.6942881,104.613088 16.735534,104.335907 15.7000002,102.968227 C14.6644663,101.600546 14.9442883,99.6602797 16.325,98.6345194 L41.5625,79.4671512 L6.25,54.7278735 L6.25,107.079058 C6.25686916,109.688503 8.39069086,111.802185 11.025,111.80899 L103.975,111.80899 C106.609309,111.802185 108.743131,109.688503 108.75,107.079058 L108.75,54.7278735 Z" id="Shape"></path>
                </g>
            </g>
        </g>
    </g>
</svg>