<?xml version="1.0" encoding="UTF-8"?>
<svg width="18px" height="18px" viewBox="0 0 18 18" version="1.1" xmlns="http://www.w3.org/2000/svg" xmlns:xlink="http://www.w3.org/1999/xlink">
    <!-- Generator: Sketch 56.3 (81716) - https://sketch.com -->
    <title>Atoms / Icons / Profile</title>
    <desc>Created with Sketch.</desc>
    <g id="::-Module-Catalog" stroke="none" stroke-width="1" fill="none" fill-rule="evenodd">
        <g id="Module-Catalog-/-Home" transform="translate(-327.000000, -57.000000)" fill="#FFFFFF" fill-rule="nonzero">
            <g id="Atoms-/-Icons-/-Profile" transform="translate(327.000000, 57.000000)">
                <path d="M9,0 C4.34855769,0 0.523557692,3.52644231 0.0519230769,8.05240385 C0.0173076923,8.36394231 0,8.67980769 0,9 C0,9.32019231 0.0173076923,9.63605769 0.0519230769,9.94759615 C0.523557692,14.4735577 4.34855769,18 9,18 C13.9716346,18 18,13.9716346 18,9 C18,4.02836538 13.9716346,0 9,0 Z M14.8759615,14.1100962 C13.89375,13.7379808 12.3014423,13.1927885 11.3105769,12.8985577 C11.2067308,12.8682692 11.19375,12.8596154 11.19375,12.4355769 C11.19375,12.0850962 11.3365385,11.7302885 11.4793269,11.4274038 C11.6350962,11.1028846 11.8125,10.5533654 11.8774038,10.0600962 C12.0591346,9.84807692 12.3100962,9.43269231 12.4658654,8.63653846 C12.6043269,7.93557692 12.5394231,7.68028846 12.4485577,7.44230769 C12.4399038,7.41634615 12.4269231,7.39038462 12.4225962,7.36875 C12.3879808,7.20432692 12.4355769,6.35192308 12.5567308,5.68990385 C12.6389423,5.23557692 12.5350962,4.27067308 11.9120192,3.47019231 C11.5182692,2.96394231 10.7610577,2.34519231 9.38076923,2.25865385 L8.62355769,2.25865385 C7.26490385,2.34519231 6.51201923,2.96394231 6.11394231,3.47019231 C5.48653846,4.27067308 5.38269231,5.23557692 5.46490385,5.68990385 C5.58605769,6.35192308 5.63365385,7.20432692 5.59903846,7.36875 C5.59038462,7.39903846 5.58173077,7.42067308 5.57307692,7.44663462 C5.48221154,7.68461538 5.41298077,7.93990385 5.55576923,8.64086538 C5.71586538,9.43701923 5.9625,9.85240385 6.14423077,10.0644231 C6.20913462,10.5576923 6.39086538,11.1028846 6.54230769,11.4317308 C6.65480769,11.6697115 6.70673077,11.9942308 6.70673077,12.4528846 C6.70673077,12.88125 6.68942308,12.8855769 6.59423077,12.9158654 C5.56875,13.21875 4.04567308,13.7552885 3.13269231,14.11875 C1.88653846,12.6951923 1.21153846,10.8995192 1.21153846,9 C1.21153846,6.91875 2.02067308,4.96298077 3.49182692,3.49182692 C4.96298077,2.02067308 6.91875,1.21153846 9,1.21153846 C11.08125,1.21153846 13.0370192,2.02067308 14.5081731,3.49182692 C15.9793269,4.96298077 16.7884615,6.91875 16.7884615,9 C16.7884615,10.8995192 16.1134615,12.6951923 14.8759615,14.1100962 Z" id="Profile"></path>
            </g>
        </g>
    </g>
</svg>