<?xml version="1.0" encoding="UTF-8"?>
<svg width="55px" height="55px" viewBox="0 0 55 55" version="1.1" xmlns="http://www.w3.org/2000/svg" xmlns:xlink="http://www.w3.org/1999/xlink">
    <!-- Generator: Sketch 56.3 (81716) - https://sketch.com -->
    <title>Combined Shape</title>
    <desc>Created with Sketch.</desc>
    <g id="::-Media-Player" stroke="none" stroke-width="1" fill="none" fill-rule="evenodd">
        <g id="Media-Player-/-Full-Screen-Player" transform="translate(-160.000000, -635.000000)" fill="#FFFFFF">
            <g id="Group-4" transform="translate(93.000000, 635.000000)">
                <g id="Group">
                    <path d="M104.209983,26.0730872 C105.263339,26.7580053 105.263339,28.2419947 104.209983,28.9269128 L90.6919105,37.7166957 C89.5800344,38.4586903 88,37.6596192 88,36.2897829 L88,18.7102171 C88,17.3403808 89.5215146,16.5413097 90.6919105,17.2833043 L104.209983,26.0730872 Z M94.5,0 C109.668421,0 122,12.3315789 122,27.5 C122,42.6684211 109.668421,55 94.5,55 C79.3315789,55 67,42.6684211 67,27.5 C67,12.3315789 79.3315789,0 94.5,0 Z M94.5,52.4615385 C108.256858,52.4615385 119.461538,41.2568579 119.461538,27.5 C119.461538,13.7431421 108.256858,2.53846154 94.5,2.53846154 C80.7431421,2.53846154 69.5384615,13.7431421 69.5384615,27.5 C69.5384615,41.2568579 80.7431421,52.4615385 94.5,52.4615385 Z" id="Combined-Shape"></path>
                </g>
            </g>
        </g>
    </g>
</svg>