<?xml version="1.0" encoding="UTF-8"?>
<svg width="24px" height="22px" viewBox="0 0 24 22" version="1.1" xmlns="http://www.w3.org/2000/svg" xmlns:xlink="http://www.w3.org/1999/xlink">
    <!-- Generator: Sketch 56.3 (81716) - https://sketch.com -->
    <title>Combined Shape Copy 2</title>
    <desc>Created with Sketch.</desc>
    <g id="::-Media-Player" stroke="none" stroke-width="1" fill="none" fill-rule="evenodd">
        <g id="Media-Player-/-Full-Screen-Player" transform="translate(-255.000000, -652.000000)" fill="#FFFFFF">
            <g id="Group-4" transform="translate(93.000000, 635.000000)">
                <g id="Group">
                    <path d="M183.284302,17.2930636 C184.44049,16.530174 186,17.3456766 186,18.7136166 L186,36.2863834 C186,37.6543234 184.44049,38.469826 183.284302,37.7069364 L169.786477,28.920553 C168.737841,28.236583 168.737841,26.763417 169.786477,26.079447 L183.284302,17.2930636 Z M164.545754,17.0043948 C164.794477,17.0043948 165.013939,17.3732781 164.999308,17.8475567 L164.999308,37.161233 C164.999308,37.6091627 164.794477,38.0043948 164.531123,38.0043948 L162.468185,38.0043948 C162.219462,38.0043948 162,37.6355115 162,37.161233 L162,17.8475567 C162,17.3996269 162.204831,17.0043948 162.468185,17.0043948 L164.545754,17.0043948 Z" id="Combined-Shape-Copy-2" transform="translate(174.000000, 27.502197) scale(-1, 1) translate(-174.000000, -27.502197) "></path>
                </g>
            </g>
        </g>
    </g>
</svg>